<svg xmlns="http://www.w3.org/2000/svg" width="24" height="24" viewBox="0 0 48 48"><g><path fill="#4285F4" d="M44.5 20H24v8.5h11.7C34.7 33.1 30.1 36 24 36c-6.6 0-12-5.4-12-12s5.4-12 12-12c2.7 0 5.2.9 7.2 2.4l6.4-6.4C33.5 5.1 28.9 3 24 3 12.4 3 3 12.4 3 24s9.4 21 21 21c10.5 0 20-7.5 20-21 0-1.3-.1-2.7-.5-4z"/><path fill="#34A853" d="M6.3 14.7l7 5.1C15.5 16.1 19.4 13 24 13c2.7 0 5.2.9 7.2 2.4l6.4-6.4C33.5 5.1 28.9 3 24 3c-7.2 0-13.4 4.1-16.7 10.1z"/><path fill="#FBBC05" d="M24 44c6.1 0 11.2-2 14.9-5.4l-6.9-5.7C30.7 34.7 27.6 36 24 36c-6.1 0-11.2-4.1-13.1-9.6l-7 5.4C6.6 41.1 14.7 44 24 44z"/><path fill="#EA4335" d="M44.5 20H24v8.5h11.7c-1.2 3.2-4.7 7.5-11.7 7.5-7.2 0-13-5.8-13-13s5.8-13 13-13c3.1 0 6 .9 8.2 2.7l6.1-6.1C36.5 5.1 30.7 3 24 3 12.4 3 3 12.4 3 24s9.4 21 21 21c10.5 0 20-7.5 20-21 0-1.3-.1-2.7-.5-4z"/></g></svg> 